<svg xmlns="http://www.w3.org/2000/svg" width="26" height="42" viewBox="0 0 26 42" fill="none">
<path d="M25.4788 20.5599C25.4763 20.9442 25.3936 21.3237 25.2358 21.6742C25.0781 22.0246 24.8489 22.3382 24.5628 22.5949L5.34382 40.2719C4.7345 40.8152 3.94667 41.1154 3.13032 41.1154C2.31397 41.1154 1.52613 40.8152 0.916816 40.2719C0.628743 40.0167 0.398104 39.7034 0.240146 39.3525C0.0821875 39.0016 0.000508653 38.6212 0.000508653 38.2364C0.000508653 37.8516 0.0821875 37.4711 0.240146 37.1202C0.398104 36.7694 0.628743 36.456 0.916816 36.2009L17.9228 20.5609L0.916816 4.91486C0.6286 4.65983 0.397832 4.34649 0.239781 3.99559C0.0817297 3.64468 0 3.26422 0 2.87936C0 2.49451 0.0817297 2.11404 0.239781 1.76314C0.397832 1.41224 0.6286 1.0989 0.916816 0.843864C1.52603 0.300368 2.3139 0 3.13032 0C3.94673 0 4.7346 0.300368 5.34382 0.843864L24.5638 18.5249C24.8497 18.7816 25.0787 19.0953 25.2363 19.4457C25.3939 19.7961 25.4765 20.1756 25.4788 20.5599V20.5599Z" fill="white"/>
</svg>